<svg xmlns="http://www.w3.org/2000/svg" viewBox="0 0 64 64" role="img" aria-labelledby="title">
  <title>Campaign Codex</title>
  <defs>
    <linearGradient id="codex-shell" x1="0%" y1="0%" x2="100%" y2="100%">
      <stop offset="0%" stop-color="#f4c56b" />
      <stop offset="100%" stop-color="#d27f3b" />
    </linearGradient>
    <linearGradient id="codex-core" x1="0%" y1="0%" x2="100%" y2="100%">
      <stop offset="0%" stop-color="#0f5f63" />
      <stop offset="100%" stop-color="#4dc5bb" />
    </linearGradient>
  </defs>
  <rect width="64" height="64" rx="18" fill="#091117" />
  <path
    d="M32 8l19 8v14c0 12.6-7.6 21.7-19 26-11.4-4.3-19-13.4-19-26V16l19-8z"
    fill="url(#codex-shell)"
  />
  <path
    d="M19 22.5c0-4.2 3.3-7.5 7.5-7.5H32v20.4c-1.4 1.5-3.6 2.4-5.8 2.4H19V22.5z"
    fill="url(#codex-core)"
  />
  <path
    d="M45 22.5c0-4.2-3.3-7.5-7.5-7.5H32v20.4c1.4 1.5 3.6 2.4 5.8 2.4H45V22.5z"
    fill="url(#codex-core)"
  />
  <circle cx="26.5" cy="24.5" r="2.5" fill="#f8f4ea" />
  <circle cx="37.5" cy="24.5" r="2.5" fill="#f8f4ea" />
  <path
    d="M25.5 30.8c1.8 1.2 4.1 1.8 6.5 1.8s4.7-.6 6.5-1.8"
    fill="none"
    stroke="#f8f4ea"
    stroke-linecap="round"
    stroke-width="2.2"
  />
  <path
    d="M22 41.5h20"
    fill="none"
    stroke="#f8f4ea"
    stroke-linecap="round"
    stroke-width="2.6"
  />
</svg>
